<svg width="214" height="217" viewBox="0 0 214 217" fill="none" xmlns="http://www.w3.org/2000/svg">
<path d="M104.907 15.8049C115.787 5.44241 133.712 9.52507 139.032 23.5769L154.284 63.8715C154.37 64.0962 154.532 64.2825 154.744 64.3968L192.645 84.8856C205.862 92.0305 207.519 110.339 195.799 119.741L162.189 146.699C162.002 146.849 161.875 147.062 161.831 147.298L154.058 189.676C151.348 204.455 134.446 211.688 121.884 203.447L85.8584 179.812C85.6576 179.681 85.4157 179.626 85.1776 179.657L42.4719 185.36C27.5792 187.349 15.4774 173.509 19.4336 159.015L30.7781 117.45C30.8413 117.219 30.819 116.972 30.7151 116.755L12.0952 77.901C5.60227 64.3519 15.0237 48.5662 30.031 47.8494L73.0678 45.7947C73.3077 45.7831 73.5353 45.6857 73.7092 45.5201L104.907 15.8049Z" fill="#FFEEA0" stroke="#422E59" stroke-width="20"/>
</svg>
