<svg width="2097" height="1116" viewBox="0 0 2097 1116" fill="none" xmlns="http://www.w3.org/2000/svg">
<path d="M1129.93 415.454C1135.63 410.026 1145.02 412.165 1147.81 419.525L1163.06 459.82C1164 462.293 1165.79 464.345 1168.12 465.602L1206.02 486.091C1212.94 489.834 1213.81 499.424 1207.67 504.348L1174.06 531.307C1172 532.961 1170.6 535.302 1170.12 537.903L1162.35 580.281C1160.93 588.022 1152.08 591.81 1145.5 587.493L1109.47 563.86C1107.26 562.409 1104.6 561.804 1101.98 562.154L1059.28 567.856C1051.48 568.898 1045.14 561.649 1047.21 554.057L1058.55 512.492C1059.25 509.942 1059 507.226 1057.86 504.842L1039.24 465.988C1035.84 458.891 1040.78 450.622 1048.64 450.247L1091.67 448.192C1094.31 448.066 1096.82 446.993 1098.73 445.17L1129.93 415.454Z" fill="#6DA0E1"/>
<path d="M352.26 93.9828C346.561 88.5548 337.172 90.6932 334.386 98.0537L315.06 149.11C314.124 151.582 312.329 153.635 310.003 154.892L261.979 180.853C255.056 184.595 254.188 194.186 260.327 199.11L302.912 233.268C304.975 234.922 306.372 237.264 306.849 239.864L316.699 293.56C318.119 301.301 326.972 305.089 333.552 300.772L379.198 270.827C381.408 269.377 384.067 268.771 386.687 269.121L440.799 276.346C448.6 277.388 454.939 270.139 452.866 262.547L438.492 209.882C437.796 207.331 438.041 204.615 439.184 202.231L462.777 153.001C466.178 145.904 461.243 137.635 453.382 137.26L398.852 134.656C396.212 134.53 393.705 133.457 391.79 131.634L352.26 93.9828Z" fill="#6DA0E1"/>
<path d="M129.862 576.04C124.983 569.864 115.387 570.661 111.593 577.557L85.2788 625.387C84.0044 627.704 81.9385 629.484 79.4591 630.401L28.2617 649.35C20.8808 652.082 18.6731 661.455 24.0588 667.194L61.417 707.001C63.2262 708.929 64.2805 711.443 64.3871 714.085L66.5876 768.632C66.9049 776.496 75.1371 781.492 82.2592 778.143L131.662 754.915C134.055 753.79 136.772 753.564 139.318 754.279L191.875 769.042C199.452 771.17 206.747 764.885 205.763 757.077L198.938 702.914C198.607 700.291 199.233 697.636 200.699 695.437L230.981 650.014C235.346 643.465 231.623 634.584 223.893 633.107L170.271 622.861C167.675 622.365 165.343 620.95 163.705 618.876L129.862 576.04Z" fill="#6DA0E1"/>
<path d="M483.963 16.8928C487.028 14.2288 491.798 15.3154 493.408 19.044L502.071 39.12C502.569 40.272 503.414 41.2391 504.49 41.8854L523.232 53.1484C526.712 55.2402 527.153 60.1133 524.104 62.7958L507.688 77.2395C506.746 78.0683 506.088 79.1715 505.806 80.394L500.885 101.699C499.971 105.656 495.473 107.581 491.98 105.51L473.17 94.361C472.091 93.7212 470.838 93.4359 469.588 93.5452L447.806 95.4494C443.76 95.803 440.539 92.1197 441.429 88.1575L446.22 66.8231C446.495 65.5989 446.379 64.3194 445.889 63.1644L437.347 43.0363C435.76 39.298 438.268 35.0965 442.311 34.7184L464.082 32.6823C465.331 32.5655 466.512 32.06 467.459 31.2369L483.963 16.8928Z" fill="#6DA0E1"/>
<path d="M638.464 861.228C641.529 858.564 646.3 859.65 647.909 863.379L656.573 883.455C657.07 884.607 657.916 885.574 658.991 886.22L677.733 897.483C681.214 899.575 681.655 904.448 678.606 907.131L662.19 921.574C661.248 922.403 660.589 923.506 660.307 924.729L655.387 946.034C654.473 949.991 649.975 951.916 646.481 949.845L627.672 938.696C626.592 938.056 625.34 937.771 624.09 937.88L602.307 939.784C598.261 940.138 595.04 936.455 595.93 932.492L600.721 911.158C600.996 909.934 600.881 908.654 600.39 907.499L591.848 887.371C590.262 883.633 592.769 879.431 596.813 879.053L618.583 877.017C619.833 876.9 621.014 876.395 621.961 875.572L638.464 861.228Z" fill="#6DA0E1"/>
<path d="M238.444 796.345C241.509 793.681 246.28 794.768 247.889 798.496L256.553 818.572C257.05 819.724 257.896 820.691 258.971 821.338L277.713 832.601C281.194 834.692 281.635 839.565 278.586 842.248L262.17 856.692C261.228 857.52 260.569 858.624 260.287 859.846L255.367 881.151C254.453 885.108 249.955 887.033 246.461 884.962L227.652 873.813C226.572 873.173 225.32 872.888 224.07 872.997L202.287 874.902C198.241 875.255 195.02 871.572 195.91 867.61L200.701 846.275C200.976 845.051 200.861 843.772 200.37 842.617L191.828 822.488C190.242 818.75 192.749 814.549 196.793 814.171L218.563 812.134C219.813 812.018 220.994 811.512 221.941 810.689L238.444 796.345Z" fill="#6DA0E1"/>
<path d="M2039.37 49.7744C2042.44 47.1104 2047.21 48.197 2048.82 51.9256L2057.48 72.0016C2057.98 73.1536 2058.82 74.1207 2059.9 74.767L2078.64 86.03C2082.12 88.1218 2082.56 92.9949 2079.51 95.6774L2063.1 110.121C2062.15 110.95 2061.5 112.053 2061.21 113.276L2056.29 134.581C2055.38 138.537 2050.88 140.463 2047.39 138.392L2028.58 127.243C2027.5 126.603 2026.25 126.318 2025 126.427L2003.21 128.331C1999.17 128.685 1995.95 125.001 1996.84 121.039L2001.63 99.7047C2001.9 98.4805 2001.79 97.201 2001.3 96.046L1992.75 75.9179C1991.17 72.1796 1993.68 67.9781 1997.72 67.5999L2019.49 65.5639C2020.74 65.447 2021.92 64.9415 2022.87 64.1185L2039.37 49.7744Z" fill="#6DA0E1"/>
<path d="M1353.98 304.657C1354.7 300.661 1359.1 298.522 1362.69 300.422L1382.01 310.654C1383.12 311.241 1384.39 311.466 1385.63 311.297L1407.3 308.347C1411.32 307.8 1414.71 311.324 1414.02 315.324L1410.26 336.864C1410.04 338.1 1410.22 339.373 1410.76 340.503L1420.26 360.197C1422.03 363.855 1419.72 368.172 1415.7 368.744L1394.06 371.824C1392.81 372.001 1391.66 372.563 1390.75 373.431L1374.96 388.552C1372.03 391.36 1367.21 390.504 1365.42 386.857L1355.8 367.221C1355.25 366.094 1354.36 365.169 1353.25 364.575L1333.99 354.226C1330.41 352.304 1329.74 347.458 1332.66 344.632L1348.36 329.416C1349.26 328.542 1349.86 327.409 1350.09 326.174L1353.98 304.657Z" fill="#6DA0E1"/>
<path d="M1769.65 776.849C1770.43 772.906 1775.31 771.452 1778.12 774.325L1790.54 787.005C1791.63 788.113 1793.16 788.655 1794.7 788.472L1812.33 786.381C1816.32 785.907 1819.21 790.1 1817.35 793.663L1809.12 809.391C1808.41 810.765 1808.37 812.395 1809.01 813.802L1816.45 829.918C1818.13 833.569 1815.04 837.613 1811.08 836.943L1793.58 833.982C1792.05 833.724 1790.49 834.189 1789.35 835.242L1776.32 847.293C1773.37 850.023 1768.56 848.33 1767.98 844.353L1765.38 826.795C1765.16 825.261 1764.23 823.919 1762.88 823.162L1747.39 814.494C1743.88 812.531 1744.01 807.44 1747.61 805.653L1763.51 797.761C1764.9 797.072 1765.89 795.778 1766.19 794.257L1769.65 776.849Z" fill="#6DA0E1"/>
<path d="M1845.11 904.159C1851.15 896.167 1863.38 896.918 1868.4 905.588L1890.09 943.083C1891.78 945.995 1894.45 948.203 1897.63 949.303L1938.57 963.46C1948.04 966.734 1951.11 978.6 1944.41 986.05L1915.45 1018.27C1913.21 1020.77 1911.93 1024 1911.87 1027.36L1911.06 1070.67C1910.87 1080.69 1900.53 1087.27 1891.38 1083.2L1851.79 1065.62C1848.71 1064.26 1845.25 1064.04 1842.03 1065.02L1800.59 1077.63C1791 1080.55 1781.55 1072.75 1782.59 1062.79L1787.08 1019.7C1787.42 1016.36 1786.56 1013 1784.63 1010.24L1759.83 974.721C1754.1 966.508 1758.59 955.106 1768.39 953.015L1810.75 943.97C1814.04 943.268 1816.97 941.404 1819 938.719L1845.11 904.159Z" fill="#6DA0E1"/>
</svg>
