<svg width="88" height="88" viewBox="0 0 88 88" fill="none" xmlns="http://www.w3.org/2000/svg">
<circle cx="43.8529" cy="43.8529" r="40.8529" fill="#F6E45B" stroke="#5B62B3" stroke-width="6"/>
<path d="M38.4404 71.3693C38.1681 72.7539 39.0696 74.1083 40.472 74.2642C45.4054 74.8127 50.4121 74.1539 55.0551 72.3272C59.6981 70.5006 63.8116 67.5715 67.0488 63.8085C67.9691 62.7388 67.7061 61.1332 66.5633 60.3054V60.3054C65.4206 59.4775 63.8322 59.7429 62.8941 60.7971C60.2421 63.7773 56.9188 66.1028 53.1843 67.572C49.4498 69.0412 45.4328 69.6035 41.4611 69.2291C40.0562 69.0967 38.7128 69.9848 38.4404 71.3693V71.3693Z" fill="#5B62B3"/>
<path d="M17.2363 52.685C15.897 53.1294 15.1617 54.5807 15.7163 55.8783C17.2013 59.353 19.3203 62.5297 21.9721 65.2424C24.6239 67.9551 27.7517 70.1457 31.1918 71.7092C32.4764 72.2931 33.9441 71.5909 34.4188 70.2621V70.2621C34.8935 68.9332 34.1939 67.4827 32.9193 66.8774C30.2059 65.5889 27.7353 63.8279 25.6262 61.6703C23.5171 59.5128 21.8126 57.0029 20.586 54.2609C20.0098 52.9729 18.5756 52.2406 17.2363 52.685V52.685Z" fill="#5B62B3"/>
<path d="M68.3809 57.448C69.6151 58.132 71.1808 57.6897 71.7595 56.4028C72.6054 54.5219 73.2589 52.5603 73.7101 50.5479C74.0189 49.171 73.0313 47.8781 71.6335 47.6852V47.6852C70.2356 47.4924 68.9589 48.4739 68.6271 49.8454C68.2903 51.2381 67.8366 52.5999 67.2708 53.9164C66.7137 55.2128 67.1467 56.7639 68.3809 57.448V57.448Z" fill="#5B62B3"/>
<path d="M71.8966 43.8529C73.3077 43.8529 74.4627 42.707 74.345 41.3008C74.0039 37.226 72.8487 33.2518 70.9383 29.617C68.6308 25.2266 65.2905 21.463 61.2053 18.6502C57.1201 15.8375 52.4123 14.06 47.4876 13.4708C43.4104 12.9831 39.2856 13.3219 35.3573 14.4572C34.0017 14.849 33.3433 16.3368 33.8468 17.655V17.655C34.3503 18.9732 35.825 19.6203 37.187 19.2513C40.3353 18.3982 43.6261 18.1553 46.8806 18.5446C50.9829 19.0354 54.9045 20.5161 58.3074 22.8591C61.7104 25.2021 64.4929 28.3372 66.415 31.9944C67.94 34.8957 68.8872 38.0566 69.2136 41.3021C69.3549 42.7061 70.4855 43.8529 71.8966 43.8529V43.8529Z" fill="#5B62B3"/>
<path d="M53.516 50.6366C53.8361 51.3507 53.8484 52.0525 53.5529 52.742C53.2574 53.4068 52.7896 54.0224 52.1493 54.5887C51.5091 55.1551 50.7704 55.6476 49.9332 56.0662C49.1206 56.4848 48.345 56.7803 47.6063 56.9526C46.7937 57.125 45.9319 57.1989 45.0208 57.1742C44.1343 57.1742 43.2356 57.0634 42.3245 56.8418C41.438 56.6448 40.5639 56.3493 39.7021 55.9554C38.8649 55.5368 38.0892 55.032 37.3751 54.441C36.5133 53.7269 35.8361 52.8774 35.3437 51.8924C34.8758 50.8829 34.5311 49.8117 34.3095 48.6791C34.0879 47.5464 33.9647 46.4137 33.9401 45.281C33.9401 44.1237 33.9771 43.0402 34.0509 42.0307C34.1248 41.1196 34.3095 40.1716 34.605 39.1866C34.9004 38.2017 35.3067 37.2414 35.8238 36.3056C36.3656 35.3453 37.0058 34.4589 37.7445 33.6463C38.5078 32.8337 39.3943 32.1442 40.4038 31.5779C41.1672 31.1347 42.0167 30.8392 42.9524 30.6914C43.9127 30.5191 44.873 30.4821 45.8334 30.5806C46.8183 30.6545 47.7417 30.8638 48.6035 31.2085C49.49 31.5287 50.241 31.9719 50.8566 32.5382C51.2506 32.883 51.6569 33.3631 52.0755 33.9787C52.5187 34.5943 52.8388 35.2222 53.0358 35.8624C53.2328 36.5026 53.2328 37.1059 53.0358 37.6723C52.8634 38.214 52.371 38.5833 51.5584 38.7803C51.2136 38.8788 50.9059 38.9035 50.635 38.8542C50.3641 38.7803 50.1179 38.6695 49.8963 38.5218C49.6747 38.3494 49.4654 38.1524 49.2684 37.9308C49.0714 37.7092 48.8867 37.4876 48.7143 37.266C48.1234 36.5519 47.4339 36.0717 46.646 35.8255C45.858 35.5546 45.07 35.4931 44.2821 35.6408C43.5187 35.7639 42.7923 36.084 42.1029 36.6011C41.438 37.0936 40.9209 37.7338 40.5516 38.5218C40.1576 39.359 39.8375 40.2824 39.5913 41.2919C39.3696 42.2769 39.2465 43.2865 39.2219 44.3207C39.1973 45.3302 39.2835 46.3152 39.4805 47.2755C39.7021 48.2358 40.0714 49.0853 40.5885 49.8241C40.9825 50.415 41.4627 50.8952 42.029 51.2645C42.62 51.6339 43.2479 51.8925 43.9127 52.0402C44.5776 52.1879 45.2424 52.2126 45.9072 52.1141C46.5967 52.0156 47.2615 51.794 47.9018 51.4492C48.0988 51.3507 48.3081 51.2153 48.5297 51.0429C48.7759 50.8459 49.0221 50.649 49.2684 50.452C49.5146 50.255 49.7608 50.0703 50.0071 49.8979C50.2779 49.7256 50.5611 49.6024 50.8566 49.5286C51.2998 49.3808 51.78 49.3931 52.2971 49.5655C52.8388 49.7379 53.2451 50.0949 53.516 50.6366Z" fill="#5B62B3"/>
</svg>
