<svg width="88" height="88" viewBox="0 0 88 88" fill="none" xmlns="http://www.w3.org/2000/svg">
<path d="M39.1812 6.06406C40.8771 1.97848 46.7071 1.97849 48.4029 6.06406L48.481 6.26524L52.5631 17.2965C55.6016 25.508 62.0761 31.9825 70.2877 35.0211L81.3189 39.1031C85.672 40.7139 85.672 46.8703 81.3189 48.4811L70.2877 52.5631C62.0761 55.6016 55.6016 62.0761 52.5631 70.2877L48.481 81.3189C46.8703 85.672 40.7139 85.672 39.1031 81.3189L35.0211 70.2877C31.9825 62.0761 25.508 55.6017 17.2965 52.5631L6.26523 48.4811C1.91213 46.8703 1.91214 40.7139 6.26523 39.1031L17.2965 35.0211C25.508 31.9825 31.9825 25.508 35.0211 17.2965L39.1031 6.26524L39.1812 6.06406Z" fill="#3A5767" stroke="#5B62B3" stroke-width="6"/>
<path d="M45.3724 6.39622C45.9059 6.72175 46.3511 7.22666 46.6058 7.91477L51.2601 20.4939C53.9948 27.8842 59.8219 33.7113 67.2122 36.446L79.7913 41.1003C82.4028 42.0669 82.4028 45.7607 79.7913 46.7273L67.2122 51.3816C59.8218 54.1163 53.9948 59.9433 51.2601 67.3337L46.6058 79.9128C45.6393 82.5245 41.9454 82.5244 40.9788 79.9128L36.3235 67.3337C33.5888 59.9435 27.7626 54.1163 20.3724 51.3816L7.79327 46.7273C5.18142 45.7608 5.18142 42.0668 7.79327 41.1003L20.3724 36.446C27.7625 33.7113 33.5888 27.884 36.3235 20.4939L40.9788 7.91477C41.2334 7.22688 41.6779 6.72175 42.2112 6.39622H45.3724Z" fill="#A5D6F2"/>
<path d="M43.7916 29.2281C46.6529 35.7324 51.8509 40.9299 58.355 43.7916C51.851 46.6531 46.6531 51.851 43.7916 58.355C40.9299 51.8509 35.7324 46.6529 29.2281 43.7916C35.7325 40.93 40.93 35.7325 43.7916 29.2281Z" stroke="#5B62B3" stroke-width="3"/>
<path d="M49.752 43.7921L54.4548 49.859L51.5868 52.4191L46.1739 47.1397L49.752 43.7921Z" fill="#A5D6F2"/>
<path d="M33.1325 43.6243L30.2004 47.7392L38.4756 55.3423L44.7415 51.3592L33.1325 43.6243Z" fill="#A5D6F2"/>
<path d="M43.9385 36.826L50.0554 32.1881L52.5847 35.0834L47.2478 40.4395L43.9385 36.826Z" fill="#A5D6F2"/>
<path d="M48.1757 49.127C48.3225 48.9772 48.4956 48.8562 48.6852 48.7707C48.8747 48.6852 49.0769 48.637 49.2803 48.6287C49.4836 48.6205 49.6841 48.6524 49.8704 48.7227C50.0566 48.7929 50.2249 48.9001 50.3657 49.0382C50.5064 49.1763 50.6169 49.3424 50.6908 49.5273C50.7646 49.7121 50.8004 49.912 50.7961 50.1155C50.7918 50.3189 50.7475 50.5221 50.6657 50.7132C50.584 50.9043 50.4663 51.0798 50.3195 51.2295L49.2476 50.1782L48.1757 49.127Z" fill="#5B62B3"/>
<path d="M53.4049 48.4421C53.2396 48.5711 53.052 48.6683 52.8531 48.7282C52.6541 48.7881 52.4476 48.8095 52.2453 48.7913C52.043 48.773 51.8489 48.7154 51.674 48.6217C51.4992 48.528 51.3471 48.4001 51.2263 48.2453C51.1056 48.0905 51.0186 47.9118 50.9703 47.7194C50.922 47.5271 50.9134 47.3248 50.945 47.1241C50.9765 46.9235 51.0476 46.7284 51.1541 46.55C51.2607 46.3716 51.4006 46.2134 51.566 46.0844L52.4854 47.2633L53.4049 48.4421Z" fill="#5B62B3"/>
<path d="M32.8401 43.9691C33.011 44.0906 33.1579 44.2424 33.2722 44.4159C33.3866 44.5894 33.4662 44.7812 33.5066 44.9802C33.547 45.1793 33.5474 45.3818 33.5077 45.5761C33.4679 45.7704 33.389 45.9528 33.2752 46.1128C33.1614 46.2728 33.0151 46.4073 32.8446 46.5086C32.6741 46.61 32.4827 46.6761 32.2814 46.7033C32.0801 46.7306 31.8729 46.7183 31.6714 46.6673C31.47 46.6162 31.2784 46.5274 31.1075 46.4059L31.9738 45.1875L32.8401 43.9691Z" fill="#5B62B3"/>
<path d="M42.4231 52.8816C42.3053 52.7081 42.1567 52.558 41.9857 52.4399C41.8147 52.3219 41.6247 52.2381 41.4266 52.1934C41.2285 52.1486 41.026 52.1439 40.8309 52.1794C40.6357 52.2148 40.4517 52.2899 40.2893 52.4001C40.1268 52.5104 39.9892 52.6538 39.8842 52.822C39.7792 52.9903 39.7089 53.1802 39.6773 53.3808C39.6457 53.5815 39.6535 53.789 39.7001 53.9915C39.7468 54.194 39.8314 54.3875 39.9492 54.561L41.1861 53.7213L42.4231 52.8816Z" fill="#5B62B3"/>
<path d="M48.0306 33.5953C48.1602 33.7602 48.2578 33.9475 48.318 34.1467C48.3782 34.3458 48.3997 34.5528 48.3813 34.7559C48.3629 34.9589 48.3049 35.1541 48.2107 35.3302C48.1166 35.5062 47.988 35.6598 47.8324 35.7821C47.6768 35.9045 47.4972 35.9931 47.3038 36.043C47.1105 36.0929 46.9071 36.1031 46.7055 36.073C46.5038 36.0429 46.3077 35.9731 46.1285 35.8676C45.9492 35.7621 45.7902 35.623 45.6607 35.4581L46.8456 34.5267L48.0306 33.5953Z" fill="#5B62B3"/>
<path d="M48.7093 38.9951C48.5635 38.8444 48.447 38.6682 48.3664 38.4766C48.2857 38.2851 48.2426 38.0818 48.2395 37.8785C48.2363 37.6753 48.2732 37.4759 48.348 37.2919C48.4228 37.1078 48.534 36.9427 48.6754 36.8059C48.8167 36.6691 48.9854 36.5634 49.1718 36.4947C49.3582 36.426 49.5587 36.3957 49.7618 36.4055C49.9648 36.4154 50.1665 36.4651 50.3553 36.552C50.5442 36.6389 50.7164 36.7612 50.8622 36.9119L49.7858 37.9535L48.7093 38.9951Z" fill="#5B62B3"/>
<circle cx="29.7307" cy="43.7921" r="1.54373" fill="#5B62B3"/>
<path d="M35.7164 47.8405C35.7164 47.8405 37.0875 48.6179 37.4812 48.9943C37.8748 49.3707 38.4193 50.1348 38.4193 50.1348" stroke="#5B62B3" stroke-width="3" stroke-linecap="round"/>
</svg>
