<svg width="97" height="77" viewBox="0 0 97 77" fill="none" xmlns="http://www.w3.org/2000/svg">
<rect y="22.5242" width="28.2511" height="25.2841" rx="3" transform="rotate(-49.3225 0 22.5242)" fill="#5B62B3"/>
<rect width="28.2117" height="25.2841" rx="3" transform="matrix(-0.6518 -0.758391 -0.758391 0.6518 96.7462 22.4943)" fill="#5B62B3"/>
<path d="M31.9639 0.00155568C33.0545 -0.0380624 33.9381 0.683154 34.3524 1.6928C34.6955 2.52881 34.7201 3.65754 34.1044 4.31891L26.9968 11.9524C26.6124 12.3649 25.9632 12.3782 25.5623 11.9817L17.2879 3.79029C16.9654 3.4708 16.9171 2.98211 17.2634 2.68873C18.1755 1.91661 20.4984 0.586018 25.8523 0.285411C28.1731 0.155105 30.2276 0.0646252 31.9639 0.00155568Z" fill="#5B62B3"/>
<path d="M63.5174 1.89159C63.9689 0.884099 64.9098 -0.00200564 66.0129 0.0423699C67.501 0.102231 69.1857 0.181268 71.0404 0.285408C76.3943 0.586016 78.7173 1.91661 79.6293 2.68873C79.9757 2.98222 79.9266 3.47084 79.6039 3.79029L71.3305 11.9817C70.9295 12.3784 70.2794 12.3653 69.8949 11.9524L63.4837 5.06707C62.8228 4.35728 62.7912 3.28764 63.2503 2.43331C63.3483 2.25093 63.4374 2.07016 63.5174 1.89159Z" fill="#5B62B3"/>
<path d="M64.0073 0.130142C68.7613 1.2078 72.3645 5.36473 72.559 10.4339L74.9692 73.2307C75.0345 74.9314 73.6731 76.346 71.9712 76.346H27.0268C25.329 76.346 23.9696 74.9382 24.0288 73.2415L26.2212 10.471C26.3888 5.67548 29.6078 1.68548 33.9731 0.34108C34.4944 4.23608 41.013 10.5236 48.979 10.5237C57.0905 10.5237 63.7011 4.00439 64.0073 0.130142Z" fill="#5B62B3"/>
<path d="M33.8735 0.0920654C33.8141 0.0121989 32.9431 0.00298347 32.2024 0.00912792C32.0551 0.0103497 32.0304 0.236364 32.1736 0.270966C32.2234 0.283003 32.2607 0.324345 32.2676 0.375114L32.3362 0.879414C32.3999 1.34751 32.8243 1.66637 33.2852 1.56259C33.7312 1.46214 34.1673 1.34531 34.1673 1.30442C34.1673 1.21545 33.9575 0.205115 33.8735 0.0920654Z" fill="#5B62B3"/>
<path d="M64.0031 0.131141C64.038 0.0364744 64.9377 0.0306713 65.6929 0.0416635C65.821 0.0435274 65.8398 0.249218 65.7145 0.275552C65.6704 0.284817 65.6369 0.320817 65.6308 0.365464L65.5594 0.890636C65.4965 1.35253 65.0777 1.66765 64.6229 1.56521C64.1879 1.46723 63.7655 1.35354 63.7655 1.31273C63.7655 1.22376 63.9555 0.260025 64.0031 0.131141Z" fill="#5B62B3"/>
<path d="M48.5364 30.9141C48.8095 29.9411 50.1888 29.9411 50.4619 30.9141L50.6727 31.6649C51.7097 35.3586 54.5963 38.2452 58.2901 39.2822L59.0409 39.493C60.0138 39.7662 60.0138 41.1454 59.0409 41.4186L58.2901 41.6294C54.5963 42.6664 51.7097 45.553 50.6727 49.2467L50.4619 49.9976C50.1888 50.9705 48.8095 50.9705 48.5364 49.9976L48.3256 49.2467C47.2886 45.553 44.402 42.6664 40.7083 41.6294L39.9574 41.4186C38.9845 41.1454 38.9845 39.7662 39.9574 39.493L40.7083 39.2822C44.402 38.2452 47.2886 35.3586 48.3256 31.6649L48.5364 30.9141Z" stroke="#EDE2E0" stroke-width="3"/>
<path d="M32.0812 7.80627C39.9387 18.729 56.6466 18.729 65.713 7.80628" stroke="#EDE2E0" stroke-width="3" stroke-linecap="round"/>
<path d="M39.0684 9.66816L42.1415 11.6769L39.5 16.9341L34.9482 14.3831L39.0684 9.66816Z" fill="#5B62B3"/>
<path d="M60.348 9.69196L62.8526 7.00757L67.5807 10.5091L64.289 14.5577L60.348 9.69196Z" fill="#5B62B3"/>
<path d="M41.4268 13.1986C41.0708 13.0246 40.6595 13.0008 40.2831 13.1325C39.9068 13.2643 39.5964 13.5407 39.4202 13.9011C39.2439 14.2615 39.2163 14.6763 39.3434 15.0542C39.4705 15.4321 39.7419 15.7422 40.0978 15.9163L40.7623 14.5574L41.4268 13.1986Z" fill="#EDE2E0"/>
<path d="M63.867 7.62553C63.6203 7.93561 63.5076 8.33149 63.5535 8.72608C63.5994 9.12067 63.8003 9.48164 64.112 9.72959C64.4237 9.97754 64.8205 10.0921 65.2154 10.0482C65.6102 10.0043 65.9706 9.80538 66.2173 9.4953L65.0422 8.56041L63.867 7.62553Z" fill="#EDE2E0"/>
<path d="M62.7136 12.7055C63.0211 12.4556 63.2166 12.0935 63.257 11.6989C63.2974 11.3043 63.1794 10.9095 62.929 10.6013C62.6786 10.2931 62.3163 10.0968 61.9217 10.0556C61.5272 10.0143 61.1328 10.1315 60.8253 10.3814L61.7694 11.5434L62.7136 12.7055Z" fill="#EDE2E0"/>
<path d="M35.6488 13.4721C35.9489 13.7308 36.3407 13.8582 36.7382 13.8264C37.1356 13.7945 37.5061 13.6059 37.768 13.302C38.0299 12.9982 38.1619 12.604 38.135 12.2062C38.108 11.8084 37.9242 11.4396 37.6241 11.1808L36.6364 12.3264L35.6488 13.4721Z" fill="#EDE2E0"/>
</svg>
