<svg width="79" height="77" viewBox="0 0 79 77" fill="none" xmlns="http://www.w3.org/2000/svg">
<rect x="9.85242" y="17.7357" width="7" height="33.0926" fill="#5B62B3"/>
<rect x="61.8444" y="17.7357" width="7" height="33.0926" fill="#5B62B3"/>
<rect x="10.3524" y="18.2357" width="6" height="32.0926" stroke="#5B62B3"/>
<rect x="62.3444" y="18.2357" width="6" height="32.0926" stroke="#5B62B3"/>
<path d="M70.6277 43.1767C72.4071 43.933 73.6549 45.6975 73.655 47.7529C73.655 49.8083 72.4071 51.5726 70.6277 52.329V67.6503C72.39 68.2646 73.655 69.9403 73.655 71.912C73.655 73.8837 72.3898 75.5584 70.6277 76.1728V76.4247H8.07007V76.1738C6.30729 75.5597 5.04175 73.8841 5.04175 71.912C5.04178 69.9399 6.30713 68.2633 8.07007 67.6493V52.329C6.29025 51.5728 5.04175 49.8086 5.04175 47.7529C5.04188 45.6972 6.29022 43.9328 8.07007 43.1767V42.7831H70.6277V43.1767Z" fill="#5B62B3"/>
<mask id="path-6-inside-1_235_17" fill="white">
<path d="M70.655 42.7831C72.3117 42.7832 73.6549 44.1264 73.655 45.7831V49.7226C73.655 51.3794 72.3118 52.7225 70.655 52.7226H70.6277V67.3993H70.655C72.3118 67.3995 73.655 68.7426 73.655 70.3993V73.4247C73.655 75.0815 72.3118 76.4246 70.655 76.4247H8.04175C6.38499 76.4246 5.04175 75.0815 5.04175 73.4247V70.3993C5.04175 68.7426 6.38499 67.3995 8.04175 67.3993H8.07007V52.7226H8.04175C6.38499 52.7225 5.04175 51.3794 5.04175 49.7226V45.7831C5.04183 44.1264 6.38504 42.7832 8.04175 42.7831H70.655Z"/>
</mask>
<path d="M70.655 42.7831L70.6551 41.7831H70.655V42.7831ZM73.655 45.7831L74.655 45.7831L74.655 45.7831L73.655 45.7831ZM70.655 52.7226L70.655 53.7226L70.6551 53.7226L70.655 52.7226ZM70.6277 52.7226V51.7226H69.6277V52.7226H70.6277ZM70.6277 67.3993H69.6277V68.3993H70.6277V67.3993ZM70.655 67.3993L70.6551 66.3993H70.655V67.3993ZM73.655 70.3993L74.655 70.3993V70.3993L73.655 70.3993ZM70.655 76.4247L70.655 77.4247L70.6551 77.4247L70.655 76.4247ZM8.04175 76.4247L8.04168 77.4247H8.04175V76.4247ZM8.04175 67.3993L8.04175 66.3993L8.04168 66.3993L8.04175 67.3993ZM8.07007 67.3993V68.3993H9.07007V67.3993H8.07007ZM8.07007 52.7226H9.07007V51.7226H8.07007V52.7226ZM8.04175 52.7226L8.04168 53.7226H8.04175V52.7226ZM5.04175 45.7831L4.04175 45.7831V45.7831H5.04175ZM8.04175 42.7831L8.04175 41.7831L8.04168 41.7831L8.04175 42.7831ZM70.655 42.7831L70.655 43.7831C71.7595 43.7832 72.655 44.6787 72.655 45.7832L73.655 45.7831L74.655 45.7831C74.6549 43.5741 72.864 41.7833 70.6551 41.7831L70.655 42.7831ZM73.655 45.7831H72.655V49.7226H73.655H74.655V45.7831H73.655ZM73.655 49.7226H72.655C72.655 50.827 71.7596 51.7225 70.655 51.7226L70.655 52.7226L70.6551 53.7226C72.864 53.7224 74.655 51.9317 74.655 49.7226H73.655ZM70.655 52.7226V51.7226H70.6277V52.7226V53.7226H70.655V52.7226ZM70.6277 52.7226H69.6277V67.3993H70.6277H71.6277V52.7226H70.6277ZM70.6277 67.3993V68.3993H70.655V67.3993V66.3993H70.6277V67.3993ZM70.655 67.3993L70.655 68.3993C71.7596 68.3994 72.655 69.2949 72.655 70.3993L73.655 70.3993L74.655 70.3993C74.655 68.1902 72.864 66.3995 70.6551 66.3993L70.655 67.3993ZM73.655 70.3993H72.655V73.4247H73.655H74.655V70.3993H73.655ZM73.655 73.4247H72.655C72.655 74.5292 71.7596 75.4247 70.655 75.4247L70.655 76.4247L70.6551 77.4247C72.864 77.4246 74.655 75.6339 74.655 73.4247H73.655ZM70.655 76.4247V75.4247H8.04175V76.4247V77.4247H70.655V76.4247ZM8.04175 76.4247L8.04182 75.4247C6.93722 75.4247 6.04175 74.5292 6.04175 73.4247H5.04175H4.04175C4.04175 75.6339 5.83276 77.4246 8.04168 77.4247L8.04175 76.4247ZM5.04175 73.4247H6.04175V70.3993H5.04175H4.04175V73.4247H5.04175ZM5.04175 70.3993H6.04175C6.04175 69.2949 6.93722 68.3994 8.04182 68.3993L8.04175 67.3993L8.04168 66.3993C5.83276 66.3995 4.04175 68.1902 4.04175 70.3993H5.04175ZM8.04175 67.3993V68.3993H8.07007V67.3993V66.3993H8.04175V67.3993ZM8.07007 67.3993H9.07007V52.7226H8.07007H7.07007V67.3993H8.07007ZM8.07007 52.7226V51.7226H8.04175V52.7226V53.7226H8.07007V52.7226ZM8.04175 52.7226L8.04182 51.7226C6.93722 51.7225 6.04175 50.827 6.04175 49.7226H5.04175H4.04175C4.04175 51.9317 5.83276 53.7224 8.04168 53.7226L8.04175 52.7226ZM5.04175 49.7226H6.04175V45.7831H5.04175H4.04175V49.7226H5.04175ZM5.04175 45.7831L6.04175 45.7832C6.0418 44.6787 6.93732 43.7832 8.04182 43.7831L8.04175 42.7831L8.04168 41.7831C5.83276 41.7833 4.04186 43.5741 4.04175 45.7831L5.04175 45.7831ZM8.04175 42.7831V43.7831H70.655V42.7831V41.7831H8.04175V42.7831Z" fill="#5B62B3" mask="url(#path-6-inside-1_235_17)"/>
<path d="M1 23.7123C1 11.1686 11.1686 1 23.7123 1H54.9845C67.5281 1 77.6968 11.1686 77.6968 23.7123H1Z" fill="#5B62B3"/>
<path d="M16.3394 23.7123C16.3394 24.4971 16.141 25.2743 15.7555 25.9994C15.3701 26.7245 14.8052 27.3834 14.093 27.9384C13.3808 28.4933 12.5353 28.9336 11.6047 29.2339C10.6742 29.5343 9.67688 29.6889 8.66968 29.6889C7.66248 29.6889 6.66515 29.5343 5.73462 29.2339C4.80409 28.9336 3.95859 28.4933 3.2464 27.9384C2.5342 27.3834 1.96926 26.7245 1.58382 25.9994C1.19838 25.2743 1 24.4971 1 23.7123L8.66968 23.7123H16.3394Z" fill="#5B62B3"/>
<path d="M31.6787 23.7123C31.6787 24.4971 31.4803 25.2743 31.0949 25.9994C30.7095 26.7245 30.1445 27.3834 29.4323 27.9384C28.7201 28.4933 27.8746 28.9336 26.9441 29.2339C26.0136 29.5343 25.0162 29.6889 24.009 29.6889C23.0018 29.6889 22.0045 29.5343 21.074 29.2339C20.1434 28.9336 19.2979 28.4933 18.5858 27.9384C17.8736 27.3834 17.3086 26.7245 16.9232 25.9994C16.5377 25.2743 16.3394 24.4971 16.3394 23.7123L24.009 23.7123H31.6787Z" fill="#5B62B3"/>
<path d="M47.018 23.7123C47.018 24.4971 46.8196 25.2743 46.4342 25.9994C46.0488 26.7245 45.4838 27.3834 44.7716 27.9384C44.0594 28.4933 43.2139 28.9336 42.2834 29.2339C41.3529 29.5343 40.3555 29.6889 39.3483 29.6889C38.3411 29.6889 37.3438 29.5343 36.4133 29.2339C35.4827 28.9336 34.6372 28.4933 33.925 27.9384C33.2129 27.3834 32.6479 26.7245 32.2625 25.9994C31.877 25.2743 31.6786 24.4971 31.6786 23.7123L39.3483 23.7123H47.018Z" fill="#5B62B3"/>
<path d="M62.3574 23.7123C62.3574 24.4971 62.159 25.2743 61.7736 25.9994C61.3882 26.7245 60.8232 27.3834 60.111 27.9384C59.3988 28.4933 58.5533 28.9336 57.6228 29.2339C56.6923 29.5343 55.6949 29.6889 54.6877 29.6889C53.6805 29.6889 52.6832 29.5343 51.7527 29.2339C50.8222 28.9336 49.9767 28.4933 49.2645 27.9384C48.5523 27.3834 47.9873 26.7245 47.6019 25.9994C47.2164 25.2743 47.0181 24.4971 47.0181 23.7123L54.6877 23.7123H62.3574Z" fill="#5B62B3"/>
<path d="M77.6968 23.7123C77.6968 24.4971 77.4984 25.2743 77.113 25.9994C76.7275 26.7245 76.1626 27.3834 75.4504 27.9384C74.7382 28.4933 73.8927 28.9336 72.9622 29.2339C72.0316 29.5343 71.0343 29.6889 70.0271 29.6889C69.0199 29.6889 68.0226 29.5343 67.092 29.2339C66.1615 28.9336 65.316 28.4933 64.6038 27.9384C63.8916 27.3834 63.3267 26.7245 62.9412 25.9994C62.5558 25.2743 62.3574 24.4971 62.3574 23.7123L70.0271 23.7123H77.6968Z" fill="#5B62B3"/>
<path d="M77.6973 23.7119C77.6973 24.4966 77.4986 25.274 77.1133 25.999C76.7278 26.7241 76.1624 27.3835 75.4502 27.9385C74.738 28.4934 73.8924 28.934 72.9619 29.2344C72.0316 29.5346 71.0343 29.6885 70.0273 29.6885C69.0201 29.6885 68.0223 29.5347 67.0918 29.2344C66.1613 28.934 65.3157 28.4934 64.6035 27.9385C63.8914 27.3835 63.3268 26.7241 62.9414 25.999C62.5561 25.274 62.3574 24.4967 62.3574 23.7119C62.3574 24.4967 62.1588 25.274 61.7734 25.999C61.388 26.7241 60.8235 27.3835 60.1113 27.9385C59.3992 28.4934 58.5535 28.934 57.623 29.2344C56.6925 29.5347 55.6947 29.6885 54.6875 29.6885C53.6805 29.6885 52.6833 29.5346 51.7529 29.2344C50.8225 28.934 49.9768 28.4934 49.2646 27.9385C48.5525 27.3835 47.987 26.7241 47.6016 25.999C47.2163 25.274 47.0186 24.4966 47.0186 23.7119C47.0186 24.4966 46.8198 25.274 46.4346 25.999C46.0491 26.7241 45.4837 27.3835 44.7715 27.9385C44.0593 28.4934 43.2137 28.934 42.2832 29.2344C41.3529 29.5346 40.3556 29.6884 39.3486 29.6885C38.3414 29.6885 37.3436 29.5347 36.4131 29.2344C35.4826 28.934 34.637 28.4934 33.9248 27.9385C33.2127 27.3835 32.6481 26.7241 32.2627 25.999C31.9255 25.3645 31.7307 24.6904 31.6875 24.0059L31.6787 23.7119C31.6787 24.4967 31.4801 25.274 31.0947 25.999C30.7093 26.7241 30.1448 27.3835 29.4326 27.9385C28.7204 28.4934 27.8748 28.934 26.9443 29.2344C26.0138 29.5347 25.016 29.6885 24.0088 29.6885C23.0018 29.6885 22.0046 29.5346 21.0742 29.2344C20.1438 28.934 19.2981 28.4934 18.5859 27.9385C17.8737 27.3835 17.3083 26.7241 16.9229 25.999C16.5376 25.274 16.3398 24.4966 16.3398 23.7119C16.3398 24.4966 16.1411 25.274 15.7559 25.999C15.3704 26.7241 14.805 27.3835 14.0928 27.9385C13.3806 28.4934 12.5349 28.934 11.6045 29.2344C10.6741 29.5346 9.67691 29.6885 8.66992 29.6885C7.66273 29.6885 6.6649 29.5347 5.73438 29.2344C4.80388 28.934 3.95827 28.4934 3.24609 27.9385C2.53396 27.3835 1.9694 26.7241 1.58398 25.999C1.19863 25.274 1 24.4967 1 23.7119C1.0002 11.1686 11.1686 1.0002 23.7119 1H54.9844C67.5279 1 77.6971 11.1684 77.6973 23.7119Z" fill="#5B62B3"/>
<mask id="path-15-outside-2_235_17" maskUnits="userSpaceOnUse" x="0" y="0" width="79" height="31" fill="black">
<rect fill="white" width="79" height="31"/>
<path d="M77.6973 23.7119C77.6973 24.4966 77.4986 25.274 77.1133 25.999C76.7278 26.7241 76.1624 27.3835 75.4502 27.9385C74.738 28.4934 73.8924 28.934 72.9619 29.2344C72.0316 29.5346 71.0343 29.6885 70.0273 29.6885C69.0201 29.6885 68.0223 29.5347 67.0918 29.2344C66.1613 28.934 65.3157 28.4934 64.6035 27.9385C63.8914 27.3835 63.3268 26.7241 62.9414 25.999C62.5561 25.274 62.3574 24.4967 62.3574 23.7119C62.3574 24.4967 62.1588 25.274 61.7734 25.999C61.388 26.7241 60.8235 27.3835 60.1113 27.9385C59.3992 28.4934 58.5535 28.934 57.623 29.2344C56.6925 29.5347 55.6947 29.6885 54.6875 29.6885C53.6805 29.6885 52.6833 29.5346 51.7529 29.2344C50.8225 28.934 49.9768 28.4934 49.2646 27.9385C48.5525 27.3835 47.987 26.7241 47.6016 25.999C47.2163 25.274 47.0186 24.4966 47.0186 23.7119C47.0186 24.4966 46.8198 25.274 46.4346 25.999C46.0491 26.7241 45.4837 27.3835 44.7715 27.9385C44.0593 28.4934 43.2137 28.934 42.2832 29.2344C41.3529 29.5346 40.3556 29.6884 39.3486 29.6885C38.3414 29.6885 37.3436 29.5347 36.4131 29.2344C35.4826 28.934 34.637 28.4934 33.9248 27.9385C33.2127 27.3835 32.6481 26.7241 32.2627 25.999C31.9255 25.3645 31.7307 24.6904 31.6875 24.0059L31.6787 23.7119C31.6787 24.4967 31.4801 25.274 31.0947 25.999C30.7093 26.7241 30.1448 27.3835 29.4326 27.9385C28.7204 28.4934 27.8748 28.934 26.9443 29.2344C26.0138 29.5347 25.016 29.6885 24.0088 29.6885C23.0018 29.6885 22.0046 29.5346 21.0742 29.2344C20.1438 28.934 19.2981 28.4934 18.5859 27.9385C17.8737 27.3835 17.3083 26.7241 16.9229 25.999C16.5376 25.274 16.3398 24.4966 16.3398 23.7119C16.3398 24.4966 16.1411 25.274 15.7559 25.999C15.3704 26.7241 14.805 27.3835 14.0928 27.9385C13.3806 28.4934 12.5349 28.934 11.6045 29.2344C10.6741 29.5346 9.67691 29.6885 8.66992 29.6885C7.66273 29.6885 6.6649 29.5347 5.73438 29.2344C4.80388 28.934 3.95827 28.4934 3.24609 27.9385C2.53396 27.3835 1.9694 26.7241 1.58398 25.999C1.19863 25.274 1 24.4967 1 23.7119C1.0002 11.1686 11.1686 1.0002 23.7119 1H54.9844C67.5279 1 77.6971 11.1684 77.6973 23.7119Z"/>
</mask>
<path d="M77.6973 23.7119L78.6973 23.7119L78.6973 23.7119L77.6973 23.7119ZM77.1133 25.999L77.9963 26.4684L77.9963 26.4683L77.1133 25.999ZM75.4502 27.9385L76.0648 28.7273L76.0649 28.7273L75.4502 27.9385ZM72.9619 29.2344L73.269 30.186L73.2691 30.186L72.9619 29.2344ZM70.0273 29.6885L70.0273 30.6885L70.0274 30.6885L70.0273 29.6885ZM67.0918 29.2344L66.7846 30.186L66.7846 30.186L67.0918 29.2344ZM64.6035 27.9385L63.9888 28.7273L63.9889 28.7273L64.6035 27.9385ZM62.9414 25.999L62.0584 26.4683L62.0584 26.4684L62.9414 25.999ZM61.7734 25.999L62.6564 26.4684L62.6565 26.4683L61.7734 25.999ZM60.1113 27.9385L60.726 28.7273L60.726 28.7273L60.1113 27.9385ZM57.623 29.2344L57.9302 30.186L57.9302 30.186L57.623 29.2344ZM54.6875 29.6885L54.6875 30.6885L54.6875 30.6885L54.6875 29.6885ZM51.7529 29.2344L51.4458 30.186L51.4458 30.186L51.7529 29.2344ZM49.2646 27.9385L48.65 28.7273L48.65 28.7273L49.2646 27.9385ZM47.6016 25.999L46.7185 26.4683L46.7186 26.4684L47.6016 25.999ZM46.4346 25.999L47.3176 26.4684L47.3176 26.4683L46.4346 25.999ZM44.7715 27.9385L45.3861 28.7273L45.3861 28.7273L44.7715 27.9385ZM42.2832 29.2344L42.5903 30.186L42.5904 30.186L42.2832 29.2344ZM39.3486 29.6885L39.3486 30.6885L39.3487 30.6885L39.3486 29.6885ZM36.4131 29.2344L36.1059 30.186L36.1059 30.186L36.4131 29.2344ZM33.9248 27.9385L33.3101 28.7273L33.3101 28.7273L33.9248 27.9385ZM32.2627 25.999L31.3797 26.4683L31.3797 26.4684L32.2627 25.999ZM31.6875 24.0059L30.6879 24.0357L30.6884 24.0523L30.6895 24.0688L31.6875 24.0059ZM31.6787 23.7119L32.6783 23.682L30.6787 23.7119H31.6787ZM31.0947 25.999L31.9777 26.4684L31.9778 26.4683L31.0947 25.999ZM29.4326 27.9385L30.0473 28.7273L30.0473 28.7273L29.4326 27.9385ZM26.9443 29.2344L27.2515 30.186L27.2515 30.186L26.9443 29.2344ZM24.0088 29.6885L24.0088 30.6885L24.0088 30.6885L24.0088 29.6885ZM21.0742 29.2344L20.767 30.186L20.7671 30.186L21.0742 29.2344ZM18.5859 27.9385L17.9713 28.7273L17.9713 28.7273L18.5859 27.9385ZM16.9229 25.999L16.0398 26.4683L16.0398 26.4684L16.9229 25.999ZM15.7559 25.999L16.6389 26.4684L16.6389 26.4683L15.7559 25.999ZM14.0928 27.9385L14.7074 28.7273L14.7074 28.7273L14.0928 27.9385ZM11.6045 29.2344L11.9116 30.186L11.9117 30.186L11.6045 29.2344ZM8.66992 29.6885L8.66992 30.6885L8.66995 30.6885L8.66992 29.6885ZM5.73438 29.2344L5.42719 30.186L5.4272 30.186L5.73438 29.2344ZM3.24609 27.9385L2.63141 28.7273L2.63143 28.7273L3.24609 27.9385ZM1.58398 25.999L0.700956 26.4683L0.70098 26.4684L1.58398 25.999ZM1 23.7119L0 23.7119L0 23.7119L1 23.7119ZM23.7119 1L23.7119 -1.25423e-10L23.7119 1.25423e-10L23.7119 1ZM77.6973 23.7119H76.6973C76.6973 24.3251 76.5425 24.9421 76.2302 25.5297L77.1133 25.999L77.9963 26.4683C78.4546 25.606 78.6973 24.6682 78.6973 23.7119H77.6973ZM77.1133 25.999L76.2303 25.5297C75.9172 26.1187 75.448 26.6724 74.8355 27.1497L75.4502 27.9385L76.0649 28.7273C76.8768 28.0946 77.5385 27.3296 77.9963 26.4684L77.1133 25.999ZM75.4502 27.9385L74.8356 27.1497C74.2228 27.6271 73.483 28.0154 72.6547 28.2827L72.9619 29.2344L73.2691 30.186C74.3017 29.8527 75.2533 29.3596 76.0648 28.7273L75.4502 27.9385ZM72.9619 29.2344L72.6548 28.2827C71.8271 28.5498 70.9337 28.6885 70.0273 28.6885L70.0273 29.6885L70.0274 30.6885C71.1349 30.6884 72.236 30.5194 73.269 30.186L72.9619 29.2344ZM70.0273 29.6885L70.0273 28.6885C69.1206 28.6885 68.2267 28.5499 67.399 28.2827L67.0918 29.2344L66.7846 30.186C67.8179 30.5196 68.9197 30.6885 70.0273 30.6885L70.0273 29.6885ZM67.0918 29.2344L67.399 28.2827C66.5706 28.0153 65.8309 27.6272 65.2182 27.1497L64.6035 27.9385L63.9889 28.7273C64.8004 29.3597 65.752 29.8527 66.7846 30.186L67.0918 29.2344ZM64.6035 27.9385L65.2182 27.1497C64.6063 26.6728 64.1378 26.1191 63.8244 25.5297L62.9414 25.999L62.0584 26.4684C62.5159 27.329 63.1765 28.0942 63.9888 28.7273L64.6035 27.9385ZM62.9414 25.999L63.8244 25.5297C63.5121 24.9421 63.3574 24.3252 63.3574 23.7119L62.3574 23.7119L61.3574 23.7119C61.3574 24.6682 61.6 25.6059 62.0584 26.4683L62.9414 25.999ZM62.3574 23.7119H61.3574C61.3574 24.3252 61.2027 24.9421 60.8904 25.5297L61.7734 25.999L62.6565 26.4683C63.1149 25.6059 63.3574 24.6682 63.3574 23.7119H62.3574ZM61.7734 25.999L60.8904 25.5297C60.5771 26.1191 60.1086 26.6728 59.4966 27.1497L60.1113 27.9385L60.726 28.7273C61.5383 28.0942 62.199 27.329 62.6564 26.4684L61.7734 25.999ZM60.1113 27.9385L59.4967 27.1497C58.8839 27.6272 58.1442 28.0153 57.3159 28.2827L57.623 29.2344L57.9302 30.186C58.9629 29.8527 59.9144 29.3597 60.726 28.7273L60.1113 27.9385ZM57.623 29.2344L57.3159 28.2827C56.4881 28.5499 55.5942 28.6885 54.6875 28.6885L54.6875 29.6885L54.6875 30.6885C55.7952 30.6885 56.8969 30.5196 57.9302 30.186L57.623 29.2344ZM54.6875 29.6885L54.6875 28.6885C53.7811 28.6885 52.8878 28.5498 52.0601 28.2827L51.7529 29.2344L51.4458 30.186C52.4788 30.5194 53.5799 30.6884 54.6875 30.6885L54.6875 29.6885ZM51.7529 29.2344L52.0601 28.2827C51.2318 28.0154 50.4921 27.6271 49.8793 27.1497L49.2646 27.9385L48.65 28.7273C49.4616 29.3596 50.4131 29.8527 51.4458 30.186L51.7529 29.2344ZM49.2646 27.9385L49.8793 27.1497C49.2669 26.6724 48.7977 26.1187 48.4846 25.5297L47.6016 25.999L46.7186 26.4684C47.1763 27.3296 47.838 28.0946 48.65 28.7273L49.2646 27.9385ZM47.6016 25.999L48.4846 25.5297C48.1727 24.9429 48.0186 24.3259 48.0186 23.7119L47.0186 23.7119L46.0186 23.7119C46.0186 24.6674 46.2598 25.6052 46.7185 26.4683L47.6016 25.999ZM47.0186 23.7119H46.0186C46.0186 24.3251 45.8638 24.9421 45.5515 25.5297L46.4346 25.999L47.3176 26.4683C47.7759 25.606 48.0186 24.6682 48.0186 23.7119H47.0186ZM46.4346 25.999L45.5516 25.5297C45.2385 26.1187 44.7693 26.6724 44.1568 27.1497L44.7715 27.9385L45.3861 28.7273C46.1981 28.0946 46.8598 27.3296 47.3176 26.4684L46.4346 25.999ZM44.7715 27.9385L44.1568 27.1497C43.5441 27.6272 42.8043 28.0154 41.976 28.2827L42.2832 29.2344L42.5904 30.186C43.623 29.8527 44.5746 29.3597 45.3861 28.7273L44.7715 27.9385ZM42.2832 29.2344L41.9761 28.2827C41.1484 28.5498 40.255 28.6884 39.3486 28.6885L39.3486 29.6885L39.3487 30.6885C40.4562 30.6884 41.5573 30.5194 42.5903 30.186L42.2832 29.2344ZM39.3486 29.6885L39.3486 28.6885C38.4419 28.6885 37.548 28.5499 36.7203 28.2827L36.4131 29.2344L36.1059 30.186C37.1392 30.5196 38.2409 30.6885 39.3486 30.6885L39.3486 29.6885ZM36.4131 29.2344L36.7203 28.2827C35.8919 28.0153 35.1522 27.6272 34.5395 27.1497L33.9248 27.9385L33.3101 28.7273C34.1217 29.3597 35.0732 29.8527 36.1059 30.186L36.4131 29.2344ZM33.9248 27.9385L34.5395 27.1497C33.9275 26.6728 33.459 26.1192 33.1457 25.5297L32.2627 25.999L31.3797 26.4684C31.8372 27.3291 32.4978 28.0942 33.3101 28.7273L33.9248 27.9385ZM32.2627 25.999L33.1457 25.5297C32.8719 25.0145 32.7193 24.4782 32.6855 23.9429L31.6875 24.0059L30.6895 24.0688C30.7421 24.9025 30.979 25.7145 31.3797 26.4683L32.2627 25.999ZM31.6875 24.0059L32.6871 23.976L32.6783 23.682L31.6787 23.7119L30.6792 23.7418L30.6879 24.0357L31.6875 24.0059ZM31.6787 23.7119H30.6787C30.6787 24.3252 30.524 24.9421 30.2117 25.5297L31.0947 25.999L31.9778 26.4683C32.4361 25.6059 32.6787 24.6682 32.6787 23.7119H31.6787ZM31.0947 25.999L30.2117 25.5297C29.8984 26.1191 29.4299 26.6728 28.8179 27.1497L29.4326 27.9385L30.0473 28.7273C30.8596 28.0942 31.5202 27.329 31.9777 26.4684L31.0947 25.999ZM29.4326 27.9385L28.818 27.1497C28.2052 27.6272 27.4655 28.0153 26.6372 28.2827L26.9443 29.2344L27.2515 30.186C28.2842 29.8527 29.2357 29.3597 30.0473 28.7273L29.4326 27.9385ZM26.9443 29.2344L26.6372 28.2827C25.8094 28.5499 24.9155 28.6885 24.0088 28.6885L24.0088 29.6885L24.0088 30.6885C25.1165 30.6885 26.2182 30.5196 27.2515 30.186L26.9443 29.2344ZM24.0088 29.6885L24.0088 28.6885C23.1024 28.6885 22.209 28.5498 21.3814 28.2827L21.0742 29.2344L20.7671 30.186C21.8001 30.5194 22.9012 30.6884 24.0088 30.6885L24.0088 29.6885ZM21.0742 29.2344L21.3814 28.2827C20.5531 28.0154 19.8134 27.6271 19.2006 27.1497L18.5859 27.9385L17.9713 28.7273C18.7828 29.3596 19.7344 29.8527 20.767 30.186L21.0742 29.2344ZM18.5859 27.9385L19.2006 27.1497C18.5881 26.6724 18.119 26.1187 17.8059 25.5297L16.9229 25.999L16.0398 26.4684C16.4976 27.3296 17.1593 28.0946 17.9713 28.7273L18.5859 27.9385ZM16.9229 25.999L17.8059 25.5297C17.494 24.9429 17.3398 24.3259 17.3398 23.7119L16.3398 23.7119L15.3398 23.7119C15.3398 24.6674 15.5811 25.6052 16.0398 26.4683L16.9229 25.999ZM16.3398 23.7119H15.3398C15.3398 24.3251 15.1851 24.9421 14.8728 25.5297L15.7559 25.999L16.6389 26.4683C17.0972 25.606 17.3398 24.6682 17.3398 23.7119H16.3398ZM15.7559 25.999L14.8729 25.5297C14.5597 26.1187 14.0906 26.6724 13.4781 27.1497L14.0928 27.9385L14.7074 28.7273C15.5194 28.0946 16.1811 27.3296 16.6389 26.4684L15.7559 25.999ZM14.0928 27.9385L13.4781 27.1497C12.8654 27.6271 12.1256 28.0154 11.2973 28.2827L11.6045 29.2344L11.9117 30.186C12.9443 29.8527 13.8959 29.3596 14.7074 28.7273L14.0928 27.9385ZM11.6045 29.2344L11.2974 28.2827C10.4697 28.5498 9.57629 28.6885 8.6699 28.6885L8.66992 29.6885L8.66995 30.6885C9.77752 30.6884 10.8786 30.5194 11.9116 30.186L11.6045 29.2344ZM8.66992 29.6885L8.66992 28.6885C7.76322 28.6885 6.86929 28.5499 6.04155 28.2827L5.73438 29.2344L5.4272 30.186C6.46052 30.5196 7.56223 30.6885 8.66992 30.6885L8.66992 29.6885ZM5.73438 29.2344L6.04156 28.2827C5.21322 28.0153 4.47351 27.6272 3.86076 27.1497L3.24609 27.9385L2.63143 28.7273C3.44302 29.3597 4.39454 29.8527 5.42719 30.186L5.73438 29.2344ZM3.24609 27.9385L3.86078 27.1497C3.24885 26.6728 2.78033 26.1191 2.46699 25.5297L1.58398 25.999L0.70098 26.4684C1.15847 27.329 1.81908 28.0942 2.63141 28.7273L3.24609 27.9385ZM1.58398 25.999L2.46701 25.5297C2.15469 24.9421 2 24.3252 2 23.7119L1 23.7119L0 23.7119C-1.07284e-07 24.6682 0.242568 25.6059 0.700956 26.4683L1.58398 25.999ZM1 23.7119L2 23.7119C2.00019 11.7208 11.7208 2.00019 23.7119 2L23.7119 1L23.7119 1.25423e-10C10.6163 0.00020741 0.000206196 10.6163 1.23988e-10 23.7119L1 23.7119ZM23.7119 1V2H54.9844V1V0H23.7119V1ZM54.9844 1V2C66.9757 2 76.6971 11.7208 76.6973 23.7119L77.6973 23.7119L78.6973 23.7119C78.6971 10.6161 68.0801 0 54.9844 0V1Z" fill="#5B62B3" mask="url(#path-15-outside-2_235_17)"/>
<mask id="path-17-inside-3_235_17" fill="white">
<path d="M31.6699 24.5481C31.6266 25.2778 31.4319 25.9967 31.0947 26.6731C30.7093 27.4462 30.1447 28.1488 29.4326 28.7405C28.7204 29.3322 27.8748 29.8021 26.9443 30.1223C26.0138 30.4426 25.016 30.6067 24.0088 30.6067C23.0018 30.6067 22.0046 30.4425 21.0742 30.1223C20.1437 29.8021 19.2981 29.3322 18.5859 28.7405C17.8737 28.1487 17.3083 27.4463 16.9229 26.6731C16.5857 25.9967 16.3919 25.2777 16.3486 24.5481L16.3398 24.2346V1.69556C19.0888 0.611933 22.0839 0.0168457 25.2178 0.0168457H31.6787V24.2346L31.6699 24.5481Z"/>
</mask>
<path d="M31.6699 24.5481C31.6266 25.2778 31.4319 25.9967 31.0947 26.6731C30.7093 27.4462 30.1447 28.1488 29.4326 28.7405C28.7204 29.3322 27.8748 29.8021 26.9443 30.1223C26.0138 30.4426 25.016 30.6067 24.0088 30.6067C23.0018 30.6067 22.0046 30.4425 21.0742 30.1223C20.1437 29.8021 19.2981 29.3322 18.5859 28.7405C17.8737 28.1487 17.3083 27.4463 16.9229 26.6731C16.5857 25.9967 16.3919 25.2777 16.3486 24.5481L16.3398 24.2346V1.69556C19.0888 0.611933 22.0839 0.0168457 25.2178 0.0168457H31.6787V24.2346L31.6699 24.5481Z" fill="#EDE2E0"/>
<path d="M31.6699 24.5481L34.6647 24.7257L34.6674 24.679L34.6687 24.6322L31.6699 24.5481ZM31.0947 26.6731L33.7796 28.0116L33.7796 28.0115L31.0947 26.6731ZM29.4326 28.7405L31.3498 31.0479L31.3499 31.0478L29.4326 28.7405ZM26.9443 30.1223L27.9206 32.959L27.9207 32.959L26.9443 30.1223ZM24.0088 30.6067L24.0087 33.6067L24.0088 33.6067L24.0088 30.6067ZM21.0742 30.1223L20.0979 32.959L20.098 32.959L21.0742 30.1223ZM18.5859 28.7405L16.6687 31.0479L16.6687 31.0479L18.5859 28.7405ZM16.9229 26.6731L14.2379 28.0115L14.238 28.0115L16.9229 26.6731ZM16.3486 24.5481L13.3498 24.6322L13.3511 24.679L13.3539 24.7258L16.3486 24.5481ZM16.3398 24.2346H13.3398V24.2767L13.341 24.3187L16.3398 24.2346ZM16.3398 1.69556L15.2396 -1.09542L13.3398 -0.346518V1.69556H16.3398ZM31.6787 0.0168457H34.6787V-2.98315H31.6787V0.0168457ZM31.6787 24.2346L34.6775 24.3187L34.6787 24.2767V24.2346H31.6787ZM31.6699 24.5481L28.6752 24.3705C28.6567 24.682 28.573 25.0073 28.4099 25.3346L31.0947 26.6731L33.7796 28.0115C34.2908 26.9861 34.5966 25.8736 34.6647 24.7257L31.6699 24.5481ZM31.0947 26.6731L28.4099 25.3346C28.2231 25.7093 27.9299 26.0886 27.5153 26.4331L29.4326 28.7405L31.3499 31.0478C32.3595 30.2089 33.1956 29.183 33.7796 28.0116L31.0947 26.6731ZM29.4326 28.7405L27.5154 26.4331C27.0989 26.7791 26.5765 27.0762 25.968 27.2856L26.9443 30.1223L27.9207 32.959C29.1731 32.5279 30.342 31.8853 31.3498 31.0479L29.4326 28.7405ZM26.9443 30.1223L25.968 27.2856C25.3605 27.4947 24.6933 27.6067 24.0088 27.6067L24.0088 30.6067L24.0088 33.6067C25.3387 33.6067 26.6671 33.3904 27.9206 32.959L26.9443 30.1223ZM24.0088 30.6067L24.0089 27.6067C23.3249 27.6067 22.6581 27.4947 22.0504 27.2856L21.0742 30.1223L20.098 32.959C21.351 33.3902 22.6787 33.6067 24.0087 33.6067L24.0088 30.6067ZM21.0742 30.1223L22.0505 27.2856C21.4421 27.0762 20.9197 26.7791 20.5031 26.433L18.5859 28.7405L16.6687 31.0479C17.6766 31.8853 18.8454 32.5279 20.0979 32.959L21.0742 30.1223ZM18.5859 28.7405L20.5032 26.4331C20.0872 26.0874 19.7938 25.7079 19.6077 25.3346L16.9229 26.6731L14.238 28.0115C14.8228 29.1846 15.6603 30.21 16.6687 31.0479L18.5859 28.7405ZM16.9229 26.6731L19.6078 25.3347C19.4457 25.0097 19.362 24.6845 19.3434 24.3704L16.3486 24.5481L13.3539 24.7258C13.4218 25.871 13.7256 26.9837 14.2379 28.0115L16.9229 26.6731ZM16.3486 24.5481L19.3475 24.464L19.3387 24.1505L16.3398 24.2346L13.341 24.3187L13.3498 24.6322L16.3486 24.5481ZM16.3398 24.2346H19.3398V1.69556H16.3398H13.3398V24.2346H16.3398ZM16.3398 1.69556L17.4401 4.48653C19.8442 3.53882 22.4665 3.01685 25.2178 3.01685V0.0168457V-2.98315C21.7013 -2.98315 18.3333 -2.31495 15.2396 -1.09542L16.3398 1.69556ZM25.2178 0.0168457V3.01685H31.6787V0.0168457V-2.98315H25.2178V0.0168457ZM31.6787 0.0168457H28.6787V24.2346H31.6787H34.6787V0.0168457H31.6787ZM31.6787 24.2346L28.6799 24.1505L28.6711 24.464L31.6699 24.5481L34.6687 24.6322L34.6775 24.3187L31.6787 24.2346Z" fill="#5B62B3" mask="url(#path-17-inside-3_235_17)"/>
<path d="M47.0273 24.9327C47.0706 25.6289 47.2653 26.3146 47.6025 26.96C47.988 27.6976 48.5525 28.3681 49.2646 28.9327C49.9768 29.4972 50.8224 29.9455 51.7529 30.251C52.6835 30.5566 53.6813 30.7129 54.6885 30.7129C55.6955 30.7129 56.6927 30.5565 57.623 30.251C58.5535 29.9455 59.3992 29.4972 60.1113 28.9327C60.8235 28.3681 61.389 27.6977 61.7744 26.96C62.1116 26.3147 62.3054 25.6288 62.3486 24.9327L62.3574 24.6338V2.86723C59.9304 2.00132 57.3162 1.52837 54.5918 1.52837H47.0186V24.6338L47.0273 24.9327Z" fill="#EDE2E0"/>
<path d="M47.0273 24.9327L45.5302 25.0257L45.5287 25.0013L45.528 24.9768L47.0273 24.9327ZM47.6025 26.96L46.2731 27.6547L46.2731 27.6547L47.6025 26.96ZM49.2646 28.9327L48.3328 30.1081L48.3328 30.1081L49.2646 28.9327ZM51.7529 30.251L51.285 31.6762L51.285 31.6762L51.7529 30.251ZM54.6885 30.7129L54.6885 32.2129L54.6885 32.2129L54.6885 30.7129ZM57.623 30.251L58.091 31.6762L58.0909 31.6762L57.623 30.251ZM60.1113 28.9327L61.0431 30.1081L61.0431 30.1082L60.1113 28.9327ZM61.7744 26.96L63.1039 27.6546L63.1039 27.6547L61.7744 26.96ZM62.3486 24.9327L63.848 24.9768L63.8473 25.0013L63.8457 25.0257L62.3486 24.9327ZM62.3574 24.6338H63.8574V24.6559L63.8568 24.6779L62.3574 24.6338ZM62.3574 2.86723L62.8615 1.45446L63.8574 1.8098V2.86723H62.3574ZM47.0186 1.52837H45.5186V0.0283661H47.0186V1.52837ZM47.0186 24.6338L45.5192 24.6779L45.5186 24.6559V24.6338H47.0186ZM47.0273 24.9327L48.5245 24.8396C48.5541 25.3162 48.6877 25.7979 48.932 26.2653L47.6025 26.96L46.2731 27.6547C45.8429 26.8314 45.5872 25.9415 45.5302 25.0257L47.0273 24.9327ZM47.6025 26.96L48.932 26.2653C49.2116 26.8005 49.6343 27.3115 50.1965 27.7572L49.2646 28.9327L48.3328 30.1081C47.4708 29.4247 46.7643 28.5948 46.2731 27.6547L47.6025 26.96ZM49.2646 28.9327L50.1965 27.7572C50.7598 28.2038 51.4457 28.5714 52.2209 28.8259L51.7529 30.251L51.285 31.6762C50.1991 31.3196 49.1939 30.7907 48.3328 30.1081L49.2646 28.9327ZM51.7529 30.251L52.2209 28.8259C52.9952 29.0801 53.8347 29.2129 54.6885 29.2129L54.6885 30.7129L54.6885 32.2129C53.5279 32.2129 52.3717 32.033 51.285 31.6762L51.7529 30.251ZM54.6885 30.7129L54.6884 29.2129C55.5419 29.2129 56.3808 29.0801 57.1552 28.8259L57.623 30.251L58.0909 31.6762C57.0046 32.0328 55.8491 32.2129 54.6885 32.2129L54.6885 30.7129ZM57.623 30.251L57.1551 28.8259C57.9302 28.5714 58.6162 28.2037 59.1795 27.7572L60.1113 28.9327L61.0431 30.1082C60.1822 30.7906 59.1769 31.3196 58.091 31.6762L57.623 30.251ZM60.1113 28.9327L59.1795 27.7572C59.7425 27.3109 60.1657 26.7998 60.445 26.2653L61.7744 26.96L63.1039 27.6547C62.6122 28.5955 61.9045 29.4253 61.0431 30.1081L60.1113 28.9327ZM61.7744 26.96L60.4449 26.2654C60.6885 25.7992 60.8218 25.3174 60.8515 24.8396L62.3486 24.9327L63.8457 25.0257C63.7889 25.9401 63.5346 26.8302 63.1039 27.6546L61.7744 26.96ZM62.3486 24.9327L60.8493 24.8886L60.8581 24.5897L62.3574 24.6338L63.8568 24.6779L63.848 24.9768L62.3486 24.9327ZM62.3574 24.6338H60.8574V2.86723H62.3574H63.8574V24.6338H62.3574ZM62.3574 2.86723L61.8534 4.28001C59.5854 3.47081 57.1415 3.02837 54.5918 3.02837V1.52837V0.0283661C57.4909 0.0283661 60.2755 0.531819 62.8615 1.45446L62.3574 2.86723ZM54.5918 1.52837V3.02837H47.0186V1.52837V0.0283661H54.5918V1.52837ZM47.0186 1.52837H48.5186V24.6338H47.0186H45.5186V1.52837H47.0186ZM47.0186 24.6338L48.5179 24.5897L48.5267 24.8886L47.0273 24.9327L45.528 24.9768L45.5192 24.6779L47.0186 24.6338Z" fill="#5B62B3"/>
<rect x="10.8543" y="41.5863" width="5.00934" height="2.39359" fill="#5B62B3"/>
<rect x="62.8397" y="41.5863" width="5.00934" height="2.39359" fill="#5B62B3"/>
<line x1="11.6522" y1="50.4713" x2="40.9462" y2="50.4713" stroke="#EDE2E0" stroke-width="3" stroke-linecap="round"/>
<line x1="51.9966" y1="50.4713" x2="66.3447" y2="50.4713" stroke="#EDE2E0" stroke-width="3" stroke-linecap="round"/>
<line x1="45.4634" y1="50.4713" x2="47.214" y2="50.4713" stroke="#EDE2E0" stroke-width="3" stroke-linecap="round"/>
<line x1="33.4986" y1="69.1756" x2="66.3447" y2="69.1756" stroke="#EDE2E0" stroke-width="3" stroke-linecap="round"/>
<line x1="11.6522" y1="69.1756" x2="18.7775" y2="69.1756" stroke="#EDE2E0" stroke-width="3" stroke-linecap="round"/>
<line x1="23.5139" y1="69.1756" x2="28.5493" y2="69.1756" stroke="#EDE2E0" stroke-width="3" stroke-linecap="round"/>
</svg>
