<svg width="88" height="88" viewBox="0 0 88 88" fill="none" xmlns="http://www.w3.org/2000/svg">
<path d="M41.7268 6.99467C42.3711 5.25343 44.8339 5.25343 45.4782 6.99467L49.5602 18.0262C52.9026 27.0589 60.0244 34.1807 69.0571 37.5231L80.0886 41.6051C81.8299 42.2494 81.8299 44.7122 80.0886 45.3565L69.0571 49.4386C60.0244 52.781 52.9026 59.9027 49.5602 68.9355L45.4782 79.967C44.8339 81.7082 42.3711 81.7082 41.7268 79.967L37.6447 68.9354C34.3023 59.9027 27.1806 52.781 18.1478 49.4386L7.11631 45.3565C5.37508 44.7122 5.37508 42.2494 7.11631 41.6051L18.1478 37.5231C27.1806 34.1807 34.3023 27.0589 37.6447 18.0262L41.7268 6.99467Z" fill="#5B62B3"/>
<path d="M40.7889 7.60352C41.7554 4.99167 45.4495 4.99166 46.416 7.60352L51.0706 20.1823C53.8053 27.5727 59.6322 33.3996 67.0226 36.1343L79.6014 40.7889C82.2132 41.7554 82.2132 45.4495 79.6014 46.416L67.0226 51.0706C59.6322 53.8053 53.8053 59.6322 51.0706 67.0226L46.416 79.6014C45.4495 82.2132 41.7554 82.2132 40.7889 79.6014L36.1343 67.0226C33.3996 59.6322 27.5727 53.8053 20.1823 51.0706L7.60352 46.416C4.99167 45.4495 4.99166 41.7554 7.60352 40.7889L20.1823 36.1343C27.5727 33.3996 33.3996 27.5727 36.1343 20.1823L40.7889 7.60352Z" fill="#5B62B3"/>
<path d="M43.6019 28.9168C46.4633 35.4211 51.6613 40.6186 58.1654 43.4803C51.6614 46.3418 46.4634 51.5398 43.6019 58.0438C40.7403 51.5397 35.5427 46.3417 29.0385 43.4803C35.5429 40.6188 40.7404 35.4212 43.6019 28.9168Z" stroke="#EDE2E0" stroke-width="3"/>
<path d="M49.5623 43.4808L54.2652 49.5478L51.3972 52.1078L45.9843 46.8285L49.5623 43.4808Z" fill="#5B62B3"/>
<path d="M32.9428 43.3131L30.0107 47.428L38.2859 55.031L44.5519 51.0479L32.9428 43.3131Z" fill="#5B62B3"/>
<path d="M43.7489 36.5147L49.8657 31.8769L52.395 34.7721L47.0581 40.1283L43.7489 36.5147Z" fill="#5B62B3"/>
<path d="M47.9861 48.8157C48.1329 48.666 48.306 48.5449 48.4955 48.4595C48.685 48.374 48.8873 48.3257 49.0906 48.3175C49.294 48.3092 49.4945 48.3412 49.6807 48.4114C49.867 48.4817 50.0353 48.5889 50.176 48.7269C50.3168 48.865 50.4273 49.0312 50.5011 49.216C50.575 49.4009 50.6108 49.6007 50.6065 49.8042C50.6022 50.0077 50.5579 50.2108 50.4761 50.4019C50.3943 50.5931 50.2767 50.7685 50.1298 50.9182L49.0579 49.867L47.9861 48.8157Z" fill="#EDE2E0"/>
<path d="M53.2153 48.1308C53.0499 48.2598 52.8624 48.357 52.6634 48.4169C52.4645 48.4768 52.2579 48.4983 52.0556 48.48C51.8533 48.4617 51.6592 48.4041 51.4844 48.3104C51.3096 48.2168 51.1574 48.0889 51.0367 47.9341C50.9159 47.7793 50.829 47.6006 50.7807 47.4082C50.7324 47.2158 50.7238 47.0135 50.7553 46.8129C50.7869 46.6122 50.8579 46.4171 50.9645 46.2387C51.071 46.0603 51.211 45.9021 51.3763 45.7732L52.2958 46.952L53.2153 48.1308Z" fill="#EDE2E0"/>
<path d="M32.6505 43.6578C32.8214 43.7793 32.9682 43.9312 33.0826 44.1047C33.1969 44.2782 33.2766 44.4699 33.317 44.669C33.3574 44.868 33.3577 45.0705 33.318 45.2648C33.2783 45.4592 33.1993 45.6415 33.0855 45.8016C32.9718 45.9616 32.8255 46.0961 32.655 46.1974C32.4844 46.2987 32.2931 46.3649 32.0918 46.3921C31.8905 46.4193 31.6832 46.407 31.4818 46.356C31.2804 46.305 31.0887 46.2162 30.9178 46.0946L31.7842 44.8762L32.6505 43.6578Z" fill="#EDE2E0"/>
<path d="M42.2334 52.5704C42.1156 52.3969 41.967 52.2468 41.7961 52.1287C41.6251 52.0106 41.4351 51.9268 41.237 51.8821C41.0388 51.8374 40.8364 51.8326 40.6413 51.8681C40.4461 51.9036 40.2621 51.9786 40.0996 52.0889C39.9372 52.1991 39.7995 52.3425 39.6945 52.5108C39.5895 52.679 39.5192 52.8689 39.4877 53.0696C39.4561 53.2702 39.4638 53.4777 39.5105 53.6802C39.5571 53.8827 39.6418 54.0762 39.7595 54.2497L40.9965 53.41L42.2334 52.5704Z" fill="#EDE2E0"/>
<path d="M47.8409 33.2841C47.9705 33.4489 48.0682 33.6363 48.1284 33.8354C48.1885 34.0345 48.21 34.2415 48.1916 34.4446C48.1732 34.6477 48.1153 34.8428 48.0211 35.0189C47.9269 35.195 47.7984 35.3486 47.6427 35.4709C47.4871 35.5932 47.3075 35.6818 47.1142 35.7317C46.9208 35.7817 46.7175 35.7919 46.5158 35.7618C46.3142 35.7317 46.1181 35.6619 45.9388 35.5564C45.7596 35.4509 45.6006 35.3117 45.471 35.1468L46.656 34.2155L47.8409 33.2841Z" fill="#EDE2E0"/>
<path d="M48.5197 38.6838C48.3739 38.5331 48.2573 38.3569 48.1767 38.1654C48.0961 37.9738 48.053 37.7706 48.0498 37.5673C48.0467 37.364 48.0835 37.1647 48.1583 36.9806C48.2331 36.7966 48.3444 36.6315 48.4857 36.4947C48.6271 36.3579 48.7958 36.2521 48.9822 36.1834C49.1686 36.1147 49.3691 36.0844 49.5721 36.0943C49.7752 36.1041 49.9769 36.1539 50.1657 36.2408C50.3545 36.3276 50.5267 36.4499 50.6726 36.6006L49.5961 37.6422L48.5197 38.6838Z" fill="#EDE2E0"/>
<circle cx="29.5411" cy="43.4809" r="1.54373" fill="#EDE2E0"/>
<path d="M35.5268 47.5292C35.5268 47.5292 36.8979 48.3066 37.2915 48.683C37.6852 49.0594 38.2296 49.8235 38.2296 49.8235" stroke="#EDE2E0" stroke-width="3" stroke-linecap="round"/>
<path d="M68.8756 1.97774C69.3293 -0.0363631 72.1992 -0.0363631 72.6529 1.97774L72.8238 2.73653C73.7573 6.8806 76.9942 10.1165 81.1383 11.05L81.8971 11.2209C83.9109 11.6747 83.9108 14.5443 81.8971 14.9982L81.1383 15.1691C76.9942 16.1027 73.7573 19.3395 72.8238 23.4836L72.6529 24.2424C72.199 26.2561 69.3294 26.2562 68.8756 24.2424L68.7047 23.4836C67.7712 19.3395 64.5353 16.1027 60.3912 15.1691L59.6324 14.9982C57.6183 14.5445 57.6183 11.6746 59.6324 11.2209L60.3912 11.05C64.5352 10.1165 67.7711 6.88049 68.7047 2.73653L68.8756 1.97774Z" fill="#5B62B3"/>
</svg>
