<svg width="55" height="77" viewBox="0 0 55 77" fill="none" xmlns="http://www.w3.org/2000/svg">
<rect y="0.242645" width="54.5947" height="76.4906" rx="3" fill="#5B62B3"/>
<path d="M3.96924 70.4157H48.7156" stroke="#EDE2E0" stroke-width="3" stroke-linecap="round"/>
<path d="M48.7156 69.9172L48.7156 3.79602" stroke="#EDE2E0" stroke-width="3" stroke-linecap="round"/>
<rect x="48.477" y="0.594849" width="4.20685" height="1.80292" fill="#5B62B3"/>
<path d="M47.8596 68.1475L47.7454 68.6508C47.6347 69.1385 47.0866 69.518 46.3582 69.6112" stroke="#D9D9D9"/>
<path d="M24.2773 41.4306C24.7624 41.4306 25.1868 41.6299 25.5507 42.0283C25.932 42.4096 26.123 42.8608 26.123 43.3808C26.1229 43.8834 25.932 44.3337 25.5507 44.7324C25.1867 45.1136 24.7625 45.3046 24.2773 45.3046C23.8093 45.3046 23.3932 45.1137 23.0292 44.7324C22.6653 44.3164 22.4833 43.866 22.4833 43.3808C22.4833 42.8435 22.6652 42.3923 23.0292 42.0283C23.3932 41.6298 23.8093 41.4306 24.2773 41.4306ZM23.0028 24.4531C23.6268 24.3317 24.2338 24.3056 24.8232 24.3749C25.4298 24.4443 26.0107 24.6 26.5653 24.8427C27.1373 25.068 27.675 25.3977 28.1776 25.831C28.7147 26.2989 29.113 26.8449 29.373 27.4687C29.6503 28.0754 29.798 28.7085 29.8153 29.3671C29.8499 30.0256 29.7716 30.6842 29.581 31.3427C29.4076 31.984 29.1393 32.582 28.7753 33.1367C28.7753 33.1367 28.7662 33.1538 28.7489 33.1884C28.4543 33.587 28.1165 33.9509 27.7353 34.2802C27.3539 34.5922 26.9982 34.9309 26.6689 35.2949C26.2877 35.6934 26.0624 36.1007 25.9931 36.5165C25.9237 36.9152 25.8544 37.3664 25.7851 37.8691C25.733 38.3541 25.6033 38.7787 25.3954 39.1425C25.2048 39.4891 24.8407 39.6539 24.3036 39.6367C23.9398 39.6193 23.6622 39.5066 23.4716 39.2988C23.2983 39.0734 23.1676 38.8132 23.081 38.5185C23.0117 38.2066 22.9855 37.8858 23.0028 37.5566C23.0202 37.2099 23.0463 36.9064 23.081 36.6464C23.185 36.0398 23.3759 35.4679 23.6532 34.9306C23.9305 34.3761 24.2684 33.8562 24.6669 33.371C24.8921 33.1112 25.1175 32.8768 25.3427 32.6689C25.5679 32.4436 25.7761 32.2093 25.9667 31.9667C26.1574 31.7241 26.3222 31.4638 26.4608 31.1865C26.5995 30.9091 26.695 30.5885 26.747 30.2245C26.799 29.8952 26.7728 29.5656 26.6689 29.2363C26.5649 28.8899 26.4089 28.5869 26.2011 28.3271C25.9931 28.0498 25.7418 27.8237 25.4472 27.6503C25.1526 27.4597 24.8318 27.3562 24.4853 27.3388C24.1733 27.3215 23.8436 27.3647 23.497 27.4687C23.1504 27.5554 22.8297 27.7031 22.5351 27.9111C22.2407 28.1016 21.9981 28.3352 21.8075 28.6122C21.6342 28.8896 21.5558 29.2021 21.5732 29.5488C21.5905 29.7567 21.6257 29.9739 21.6776 30.1992C21.7468 30.4068 21.7902 30.6145 21.8075 30.8222C21.8422 31.0128 21.8331 31.2039 21.7812 31.3945C21.7465 31.5851 21.6338 31.7671 21.4433 31.9404C21.1313 32.235 20.8187 32.3828 20.5067 32.3828C20.1949 32.3654 19.9092 32.2608 19.6493 32.0703C19.3894 31.8796 19.1642 31.6373 18.9735 31.3427C18.8002 31.0307 18.6867 30.7182 18.6347 30.4062C18.5654 29.9557 18.5312 29.4961 18.5312 29.0283C18.5485 28.5604 18.635 28.1009 18.7909 27.6503C18.9816 27.0611 19.2942 26.5414 19.7274 26.0908C20.1607 25.6402 20.6543 25.2843 21.2089 25.0244C21.7981 24.7471 22.3963 24.5571 23.0028 24.4531Z" fill="#EDE2E0"/>
<path d="M24.2773 41.4306C24.7624 41.4306 25.1868 41.6299 25.5507 42.0283C25.932 42.4096 26.123 42.8608 26.123 43.3808C26.1229 43.8834 25.932 44.3337 25.5507 44.7324C25.1867 45.1136 24.7625 45.3046 24.2773 45.3046C23.8093 45.3046 23.3932 45.1137 23.0292 44.7324C22.6653 44.3164 22.4833 43.866 22.4833 43.3808C22.4833 42.8435 22.6652 42.3923 23.0292 42.0283C23.3932 41.6298 23.8093 41.4306 24.2773 41.4306ZM23.0028 24.4531C23.6268 24.3317 24.2338 24.3056 24.8232 24.3749C25.4298 24.4443 26.0107 24.6 26.5653 24.8427C27.1373 25.068 27.675 25.3977 28.1776 25.831C28.7147 26.2989 29.113 26.8449 29.373 27.4687C29.6503 28.0754 29.798 28.7085 29.8153 29.3671C29.8499 30.0256 29.7716 30.6842 29.581 31.3427C29.4076 31.984 29.1393 32.582 28.7753 33.1367C28.7753 33.1367 28.7662 33.1538 28.7489 33.1884C28.4543 33.587 28.1165 33.9509 27.7353 34.2802C27.3539 34.5922 26.9982 34.9309 26.6689 35.2949C26.2877 35.6934 26.0624 36.1007 25.9931 36.5165C25.9237 36.9152 25.8544 37.3664 25.7851 37.8691C25.733 38.3541 25.6033 38.7787 25.3954 39.1425C25.2048 39.4891 24.8407 39.6539 24.3036 39.6367C23.9398 39.6193 23.6622 39.5066 23.4716 39.2988C23.2983 39.0734 23.1676 38.8132 23.081 38.5185C23.0117 38.2066 22.9855 37.8858 23.0028 37.5566C23.0202 37.2099 23.0463 36.9064 23.081 36.6464C23.185 36.0398 23.3759 35.4679 23.6532 34.9306C23.9305 34.3761 24.2684 33.8562 24.6669 33.371C24.8921 33.1112 25.1175 32.8768 25.3427 32.6689C25.5679 32.4436 25.7761 32.2093 25.9667 31.9667C26.1574 31.7241 26.3222 31.4638 26.4608 31.1865C26.5995 30.9091 26.695 30.5885 26.747 30.2245C26.799 29.8952 26.7728 29.5656 26.6689 29.2363C26.5649 28.8899 26.4089 28.5869 26.2011 28.3271C25.9931 28.0498 25.7418 27.8237 25.4472 27.6503C25.1526 27.4597 24.8318 27.3562 24.4853 27.3388C24.1733 27.3215 23.8436 27.3647 23.497 27.4687C23.1504 27.5554 22.8297 27.7031 22.5351 27.9111C22.2407 28.1016 21.9981 28.3352 21.8075 28.6122C21.6342 28.8896 21.5558 29.2021 21.5732 29.5488C21.5905 29.7567 21.6257 29.9739 21.6776 30.1992C21.7468 30.4068 21.7902 30.6145 21.8075 30.8222C21.8422 31.0128 21.8331 31.2039 21.7812 31.3945C21.7465 31.5851 21.6338 31.7671 21.4433 31.9404C21.1313 32.235 20.8187 32.3828 20.5067 32.3828C20.1949 32.3654 19.9092 32.2608 19.6493 32.0703C19.3894 31.8796 19.1642 31.6373 18.9735 31.3427C18.8002 31.0307 18.6867 30.7182 18.6347 30.4062C18.5654 29.9557 18.5312 29.4961 18.5312 29.0283C18.5485 28.5604 18.635 28.1009 18.7909 27.6503C18.9816 27.0611 19.2942 26.5414 19.7274 26.0908C20.1607 25.6402 20.6543 25.2843 21.2089 25.0244C21.7981 24.7471 22.3963 24.5571 23.0028 24.4531Z" stroke="#EDE2E0"/>
<rect x="42.0917" y="15.8307" width="9.46408" height="6.44089" fill="#5B62B3"/>
<rect x="42.0917" y="49.1599" width="9.46408" height="12.698" fill="#5B62B3"/>
<rect x="14.7131" y="60.3154" width="9.46408" height="12.698" fill="#5B62B3"/>
<path d="M48.7156 15.8307L48.7156 4.1501" stroke="#EDE2E0" stroke-width="3" stroke-linecap="round"/>
<path d="M48.7156 33.9381L48.7156 21.0557" stroke="#EDE2E0" stroke-width="3" stroke-linecap="round"/>
<path d="M48.7156 50.2932L48.7156 37.7056" stroke="#EDE2E0" stroke-width="3" stroke-linecap="round"/>
<path d="M48.7156 68.3389L48.7156 61.8579" stroke="#EDE2E0" stroke-width="3" stroke-linecap="round"/>
<path d="M48.7156 56.979L48.7156 54.7905" stroke="#EDE2E0" stroke-width="3" stroke-linecap="round"/>
<path d="M4.47812 70.4157L18.7257 70.4157" stroke="#EDE2E0" stroke-width="4" stroke-linecap="round"/>
<path d="M24.1772 70.4157L48.1027 70.4157" stroke="#EDE2E0" stroke-width="4" stroke-linecap="round"/>
<path d="M47.1188 2.58217L48.9777 2.58218C49.8566 2.58219 50.627 3.72764 50.627 5.03427" stroke="#5B62B3"/>
<rect x="50.4197" y="0.722" width="1.13608" height="0.193695" fill="#5B62B3"/>
</svg>
