<svg width="81" height="76" viewBox="0 0 81 76" fill="none" xmlns="http://www.w3.org/2000/svg">
<path d="M66.7021 0.585144C68.398 -0.732885 70.9147 0.292515 71.3994 2.49921L76.4541 25.5119C78.9929 30.2734 80.4345 35.7088 80.4346 41.4816C80.4346 58.4449 68.0092 72.5053 51.7637 75.0607H28.6699C12.4246 72.5052 0 58.4449 0 41.4816C8.06922e-05 35.7083 1.44022 30.2718 3.97949 25.5099L9.03418 2.49921C9.51893 0.292393 12.0366 -0.7332 13.7324 0.585144L24.3848 8.86639C27.432 7.97002 30.6567 7.4875 33.9941 7.48749H46.4395C49.7764 7.48749 53.001 7.97027 56.0479 8.86639L66.7021 0.585144Z" fill="#5B62B3"/>
<path d="M17.1548 39.2523L23.2601 31.8895C24.047 30.9405 25.4969 30.9225 26.3071 31.8518L32.7596 39.2523" stroke="#EDE2E0" stroke-width="5" stroke-linecap="round"/>
<path d="M47.6744 39.2523L53.7796 31.8895C54.5666 30.9405 56.0164 30.9225 56.8266 31.8518L63.2791 39.2523" stroke="#EDE2E0" stroke-width="5" stroke-linecap="round"/>
<path d="M24.0149 53.3771C30.681 58.6743 34.1862 57.9891 40.217 53.3771" stroke="#EDE2E0" stroke-width="5" stroke-linecap="round"/>
<path d="M40.217 53.3771C46.883 58.6743 50.3883 57.9891 56.4191 53.3771" stroke="#EDE2E0" stroke-width="5" stroke-linecap="round"/>
</svg>
