<svg width="97" height="76" viewBox="0 0 97 76" fill="none" xmlns="http://www.w3.org/2000/svg">
<path d="M3.72174 10.9268C11.9493 -1.55007 31.5341 -3.14845 44.1075 5.14262C54.5538 12.0312 66.9101 30.1986 66.0743 43.3038L84.7706 53.9571C85.4728 54.3572 86.0841 54.8553 86.6006 55.4219C88.1614 53.7229 90.4515 52.9607 92.5772 53.6582C95.5985 54.6499 97.1422 58.2146 96.0245 61.6202C95.0636 64.5472 92.4495 66.4014 89.8155 66.2354C90.4061 67.6589 90.4988 69.3649 89.9512 71.0332C88.8334 74.4388 85.4775 76.396 82.4561 75.4043C79.5016 74.4344 77.9626 71.0039 78.9415 67.668C78.3963 67.5072 77.8601 67.2838 77.3448 66.9903L57.5626 55.7178C45.746 61.3007 24.6184 57.1211 14.3126 50.3252C1.73949 42.034 -4.50563 23.4036 3.72174 10.9268Z" fill="#5B62B3"/>
</svg>
